<svg xmlns="http://www.w3.org/2000/svg" viewBox="0 0 2000 691.1" xmlns:v="https://vecta.io/nano"><path d="M289.3 152.7c8 0 13.9.7 17.7 2s6.5 3.5 8.2 6.6c2.3 4.7 3.4 11.1 3.4 19.1v119.2c0 21.6-7.8 40.6-23.4 57.1s-35.5 24.8-59.8 24.8c-13.6 0-25.6-3-36-8.9-9.4-5.1-16-9.8-19.7-13.9l-2.5-2.5c-7.2-7.6-10.8-14.1-10.8-19.6 0-5.4 3.6-11.9 10.8-19.3s13.6-11.1 19.1-11.1 11.7 3.4 18.5 10.2 14.1 10.2 22 10.2 14.4-2.7 19.6-8c5.1-5.3 7.7-12.4 7.7-21.3v-115c0-12.3 2.1-20.2 6.2-23.7 4.6-3.9 10.9-5.9 19-5.9zm75.1 83.8c17.3-16 37-24 59.1-24s41.8 8 58.8 23.9 25.6 36.2 25.6 60.8c0 17-4.4 32.2-13.2 45.4s-19.6 23-32.2 29.3-25.7 9.4-39.3 9.4-26.7-3.3-39.4-10-23.5-16.5-32.2-29.6c-8.7-13-13.1-27.8-13.1-44.2 0-24.6 8.7-45 25.9-61zm38.5 83c6.6 5 13.2 7.5 20 7.5s13.6-2.6 20.3-7.7c6.8-5.1 10.2-12.7 10.2-22.8s-3.2-17.6-9.6-22.5-13.2-7.4-20.6-7.4-14.3 2.6-20.6 7.7c-6.4 5.1-9.6 12.7-9.6 22.6.1 10.1 3.4 17.6 9.9 22.6zm214.1-103c18.3 0 35.1 8.1 50.4 24.3s23 35.1 23 56.5c0 21.5-7.6 40.3-22.8 56.4s-31.5 24.2-49 24.2-29.9-4.9-37.3-14.8c-1.6 10.1-10.5 15.1-26.5 15.1-12.9 0-20.8-2.8-23.7-8.3-1.4-3.1-2.3-5.8-2.6-8.2s-.5-5.9-.5-10.6V167.2c0-4.7.2-8.3.5-10.6.3-2.4 1.2-5 2.6-7.9 2.9-5.5 10.9-8.3 24-8.3 12.9 0 20.7 2.8 23.4 8.3 1.6 3.1 2.6 5.8 2.9 8.2s.5 5.9.5 10.6v64.1c8.2-10.1 19.9-15.1 35.1-15.1zM590.1 316c5 5.5 11.3 8.3 18.9 8.3s14.1-2.8 19.4-8.3 8-11.7 8-18.5-2.5-13-7.4-18.6-11.5-8.5-19.7-8.5-14.7 2.9-19.6 8.6c-4.8 5.8-7.2 12-7.2 18.6 0 6.8 2.5 12.9 7.6 18.4zm121.5 48.1c-3.9-2.5-5.9-6.4-5.9-11.7s3.9-13.4 11.7-24.3c2.3-3.5 5.9-5.2 10.9-5.2s11.9 2.5 20.5 7.5 16.4 7.5 23.4 7.5c12.5 0 18.8-2.5 18.8-7.4 0-3.9-6.9-6.8-20.6-8.6-12.9-1.8-25.8-6.7-38.5-14.5-6-3.7-10.9-9.5-14.8-17.4s-5.9-17.3-5.9-28.2c0-32.4 22.3-48.7 66.9-48.7 14.6 0 29.6 3.5 45 10.5 7.2 3.3 10.8 7.4 10.8 12.3s-2.3 11-6.8 18.2-9.1 10.8-13.9 10.8c-2.5 0-7-1.5-13.7-4.6s-13.9-4.6-21.7-4.6c-12.1 0-18.2 2.3-18.2 6.8 0 6.2 7 10.2 20.9 12 13.6 1.4 26.7 5.3 39.4 11.7 6 2.9 10.9 7.9 14.9 14.9 4 7.1 6 16 6 26.6 0 10.7-2 19.8-6 27.3s-9.6 13.1-16.8 16.8c-13.1 6.4-29.6 9.5-49.4 9.5-19.7 0-38.7-5.7-57-17.2z" fill="#c2272d"/><path d="M1088.4 152.7c4.7 0 8.3.2 10.6.5 2.4.3 5 1.3 8 2.9s5.1 4.4 6.3 8.3 1.8 9.1 1.8 15.7-.6 11.8-1.8 15.7-3.4 6.6-6.5 8.2c-3.1 1.5-5.8 2.5-8.2 2.8s-6 .5-10.9.5h-94.3v31.1h60.7c4.9 0 8.6.2 10.9.5 2.4.3 5.1 1.3 8.2 2.9 5.3 3.1 8 11.2 8 24.3 0 14.4-3.9 22.9-11.7 25.6-3.3 1-8.5 1.5-15.7 1.5h-60.4v58.2c0 4.9-.2 8.5-.5 10.8s-1.3 4.9-2.9 8c-2.9 5.5-10.9 8.3-24 8.3-14.4 0-22.8-3.9-25.3-11.7-1.2-3.3-1.8-8.5-1.8-15.7V179.8c0-10.5 1.9-17.6 5.9-21.4 3.9-3.8 11.3-5.7 22.2-5.7h121.4 0zm91.3 33.5c-1.5 3-4.3 5.1-8.2 6.3s-9.1 1.8-15.6 1.8-11.7-.6-15.6-1.8-6.6-3.4-8.2-6.5-2.5-5.8-2.8-8.2-.5-5.9-.5-10.6.2-8.3.5-10.6c.3-2.4 1.2-5 2.6-7.9 2.9-5.5 10.9-8.3 24-8.3 12.9 0 20.7 2.8 23.4 8.3 1.6 3.1 2.6 5.8 2.9 8.2s.5 5.9.5 10.6-.2 8.3-.5 10.6c0 2.4-.9 5.1-2.5 8.1zm-50.7 57.1c0-4.7.2-8.3.5-10.6.3-2.4 1.2-5.1 2.6-8.2 2.9-5.3 10.9-8 24-8 9.9 0 16.8 1.7 20.9 5.2 3.5 2.9 5.3 7.3 5.5 13.2.2 2.1.3 5 .3 8.9v107.8c0 4.7-.2 8.3-.5 10.6-.3 2.4-1.3 5.1-2.9 8.2-2.7 5.3-10.6 8-23.7 8-12.9 0-20.8-2.8-23.7-8.3-1.4-3.1-2.3-5.7-2.6-8s-.5-5.9-.5-10.8l.1-108h0zm168.9-27.1c20.5 0 37.6 7.9 51.3 23.6s20.5 34.9 20.5 57.5v54.2c0 4.7-.2 8.3-.5 10.6-.3 2.4-1.2 5-2.6 7.9-2.9 5.5-10.9 8.3-24 8.3-14.6 0-23-3.8-25.3-11.4-1.2-3.5-1.8-8.7-1.8-15.7V297c0-8.4-2.4-15-7.2-19.7s-11.3-7.1-19.4-7.1-14.7 2.5-19.7 7.4-7.5 11.4-7.5 19.4v54.5c0 4.7-.2 8.3-.5 10.6-.3 2.4-1.3 5-2.9 7.9-2.7 5.5-10.6 8.3-23.7 8.3-12.9 0-20.8-2.8-23.7-8.3-1.4-3.1-2.3-5.8-2.6-8.2s-.5-5.9-.5-10.6V242.1c0-4.5.2-8 .5-10.3.3-2.4 1.3-5 2.9-7.9 2.9-5.1 10.8-7.7 23.7-7.7 12.5 0 20.2 2.4 23.1 7.1 2 3.5 3.1 7.7 3.1 12.6.8-1.4 2.7-3.5 5.5-6.2 2.9-2.7 5.6-4.8 8.3-6.5 6.8-4.6 14.5-7 23-7zm205.3-67.6c1.5-3 4.3-5.1 8.2-6.3s9.1-1.8 15.6-1.8 11.7.6 15.6 1.8 6.6 3.4 8.2 6.5c1.5 3.1 2.5 5.8 2.8 8.2s.5 5.9.5 10.6v183.9c0 4.7-.2 8.3-.5 10.6-.3 2.4-1.3 5-2.9 7.9-3.1 5.5-11.8 8.3-26 8.3-14.3 0-22.2-5-23.9-15.1-8.6 9.9-20.6 14.8-36 14.8-18.5 0-35.3-8.1-50.5-24.2s-22.8-34.9-22.8-56.4 7.6-40.3 23-56.5c15.3-16.2 32.1-24.3 50.4-24.3 15.2 0 27 5.1 35.4 15.4v-64.7c0-4.7.2-8.3.5-10.6-.1-2.5.9-5.2 2.4-8.1zM1453.1 316c5.3 5.5 11.8 8.3 19.4 8.3s13.9-2.8 18.9-8.3 7.5-11.7 7.5-18.3c0-6.7-2.4-12.9-7.2-18.6s-11.3-8.6-19.6-8.6c-8.2 0-14.8 2.8-19.7 8.5s-7.4 11.9-7.4 18.6c.1 6.7 2.8 12.9 8.1 18.4zm281.9-38c0 12.6-3.1 22-9.4 28-6.3 6.1-13.2 9.1-20.8 9.1h-73c0 5.8 3.4 10.6 10.2 14.5s13.6 5.9 20.3 5.9c11.9 0 21.3-1.2 28-3.7l3.4-1.2c4.9-2.3 9-3.4 12.3-3.4 6.6 0 12.2 4.6 16.9 13.9 2.7 5.5 4 10.3 4 14.2 0 18.3-21.9 27.4-65.6 27.4-15.2 0-28.7-2.6-40.5-7.9-11.8-5.2-21-12.2-27.6-20.8-12.9-16.6-19.4-35.2-19.4-55.8 0-25.9 8.4-46.6 25.1-62.1s37.6-23.3 62.7-23.3c28.5 0 49.5 10.1 62.8 30.2 7.1 10.7 10.6 22.3 10.6 35zm-65 9c7.8 0 11.7-3.3 11.7-9.9 0-4.7-1.8-8.5-5.4-11.4s-8.7-4.3-15.4-4.3-13.3 2.7-19.9 8.2c-6.6 5.4-9.9 11.2-9.9 17.4h38.9 0zm195.3-69a20.52 20.52 0 0 1 9.7 6.3c2.6 3 3.9 7.8 3.9 14.3 0 6.6-2 13.8-5.9 21.6s-9.6 11.7-16.9 11.7a23.26 23.26 0 0 1-10.6-2.5c-3.4-1.6-7.9-2.5-13.4-2.5s-10.7 2-15.6 5.9c-4.8 3.9-7.2 8.6-7.2 14.2v64.7c0 4.7-.2 8.3-.5 10.6-.3 2.4-1.3 5.1-2.9 8.2-3.1 5.3-11.1 8-24 8-9.9 0-16.9-1.7-21.3-5.2-3.3-2.9-5.1-7.3-5.5-13.2v-8.9V243c0-4.7.2-8.3.5-10.6.3-2.4 1.2-5 2.6-7.9 2.9-5.5 10.9-8.3 24-8.3 12.3 0 20 2.4 23.1 7.1 2.3 3.3 3.4 6.7 3.4 10.2 1-1.4 2.5-3.2 4.5-5.2 1.9-2.1 6.1-4.8 12.5-8.3s12-5.2 16.8-5.2 8.9.3 12.2.8c3.1.3 6.7 1.2 10.6 2.4z" fill="#313b68"/><path d="M1160.9 246.8c-.2 3.3.2 7.1.5 11 .2 4.5.7 8.9 1 13.4.3 4.1.7 8.1 1.1 12.2l1.3 13.8 1.3 13.3c.1 1.4.3 2.8.4 4.2.1.9-.3 1.5-.8 2.1l-9.9 12.5c-.6.8-.9.6-1.4 0l-10.2-12.9c-.5-.6-.6-1.2-.5-2l.8-7.6.8-7.9c.2-1.7.3-3.5.5-5.2l.8-8.6c.2-1.8.3-3.6.5-5.3l.8-9.3c.2-2 .3-4 .5-6 .3-3.6.7-7.2.8-10.8.2-3.9.4-7.7.3-11.6-.1-1.9 0-1.9 1.9-1.6 2.7.3 5.4.4 8.1-.1 1.1-.2 1.6.2 1.6 1.3-.2 1.4-.2 2.9-.2 5.1zm-5.6-13.1c-1.6.1-3.2-.1-4.8-.4-1.1-.2-1.7-.7-2.1-1.8-.6-2.2-1-4.4-1.3-6.7-.1-.9-.3-1.8-.3-2.7 0-.8.4-1.3 1-1.7 1-.6 2.2-.8 3.3-.9 3.3-.4 6.5-.4 9.7.4.6.1 1.1.3 1.7.6.6.4.9.9.9 1.6l-1.3 8.8c-.4 1.8-1.5 2.4-3.1 2.6-1.2.2-2.5.4-3.7.2z" fill="#fff"/><path d="M1675.7 159.9c2.2 0 3.4-2.3 3.4-6.8 0-4.6-1.1-7-3.4-7h-41.3c-9.7 0-14.6-5.2-14.6-15.5h55.8c5.8 0 10.4 2.4 13.9 7.1 3.3 4.3 4.9 9.4 4.9 15.3s-1.6 11-4.9 15.2c-3.5 4.7-8.2 7.1-13.9 7.1h-40.4V197h-15.5v-37.3l56 .2zm83.6 15.3h0l19.6 21.8h-21.2l-19.2-21.7h-22.1V197H1701v-37.3l55.8.1c2.2 0 3.4-2.3 3.4-6.8 0-4.6-1.1-7-3.4-7h-41.3c-9.7 0-14.6-5.2-14.6-15.5h55.8c5.8 0 10.4 2.4 13.9 7.1 3.3 4.3 4.9 9.4 4.9 15.3s-1.6 11-4.9 15.2c-2.8 4.2-6.6 6.5-11.3 7.1zm113.8.7c0 6-2.1 11-6.3 15s-9.3 6-15.3 6h-39c-6 0-11.1-2-15.3-6s-6.3-9-6.3-15v-24.3c0-6 2.1-11 6.3-15s9.3-6 15.3-6h39c6 0 11.1 2 15.3 6s6.3 9 6.3 15v24.3zm-15.5 0v-24.3c0-3.7-2.1-5.5-6.2-5.5h-39c-4.1 0-6.2 1.8-6.2 5.5v24.3c0 3.7 2.1 5.5 6.2 5.5h39c4.1 0 6.2-1.8 6.2-5.5z" fill="#ee1e3a"/><path d="M1849.4 459.5c-2.2-6.3-2.7-12.6-1.4-18.9-157 93.3-464.7 156.6-818.5 156.6-513.4 0-929.5-133.4-929.5-297.9 0-99.6 152.6-187.8 387-241.9-251 57-415.4 152.3-415.4 260.2 0 174.6 430.8 316.2 962.3 316.2 349.6 0 655.7-61.3 824.2-152.9-5.3-6.8-8.1-13.9-8.7-21.4z" fill="#bf2026"/><path d="M1928.4 418.8l-30.1 50.3 24.3 53.3-57.1-13.1-43.2 39.6-5.2-58.4-51-28.8 53.9-23 11.7-57.4 38.5 44.2z" fill="#1f295c"/></svg>